<?xml version="1.0" encoding="UTF-8" standalone="no"?>
<svg
   xmlns:dc="http://purl.org/dc/elements/1.1/"
   xmlns:cc="http://creativecommons.org/ns#"
   xmlns:rdf="http://www.w3.org/1999/02/22-rdf-syntax-ns#"
   xmlns:svg="http://www.w3.org/2000/svg"
   xmlns="http://www.w3.org/2000/svg"
   xmlns:xlink="http://www.w3.org/1999/xlink"
   xmlns:sodipodi="http://sodipodi.sourceforge.net/DTD/sodipodi-0.dtd"
   xmlns:inkscape="http://www.inkscape.org/namespaces/inkscape"
   viewBox="0 0 148.85 148.85"
   version="1.1"
   id="svg4035"
   sodipodi:docname="logo-circle.svg"
   inkscape:version="0.92.5 (2060ec1f9f, 2020-04-08)">
  <metadata
     id="metadata4039">
    <rdf:RDF>
      <cc:Work
         rdf:about="">
        <dc:format>image/svg+xml</dc:format>
        <dc:type
           rdf:resource="http://purl.org/dc/dcmitype/StillImage" />
      </cc:Work>
    </rdf:RDF>
  </metadata>
  <sodipodi:namedview
     pagecolor="#ffffff"
     bordercolor="#666666"
     borderopacity="1"
     objecttolerance="10"
     gridtolerance="10"
     guidetolerance="10"
     inkscape:pageopacity="0"
     inkscape:pageshadow="2"
     inkscape:window-width="1280"
     inkscape:window-height="960"
     id="namedview4037"
     showgrid="false"
     inkscape:zoom="4.8639568"
     inkscape:cx="74.425003"
     inkscape:cy="74.425003"
     inkscape:window-x="0"
     inkscape:window-y="0"
     inkscape:window-maximized="1"
     inkscape:current-layer="svg4035" />
  <defs
     id="defs4025">
    <style
       id="style4016">.cls-1{fill:url(#linear-gradient);}.cls-2{fill:#fff;}</style>
    <linearGradient
       id="linear-gradient"
       x1="138.91"
       y1="90.03"
       x2="38.59"
       y2="65.76"
       gradientUnits="userSpaceOnUse">
      <stop
         offset="0"
         stop-color="#007cf2"
         id="stop4018" />
      <stop
         offset="0.52"
         stop-color="#0060e3"
         id="stop4020" />
      <stop
         offset="1"
         stop-color="#004bd8"
         id="stop4022" />
    </linearGradient>
  </defs>
  <title
     id="title4027">ecency_logo_circle</title>
  <g
     id="Layer_2"
     data-name="Layer 2">
    <g
       id="Layer_1-2"
       data-name="Layer 1">
      <circle
         class="cls-1"
         cx="74.43"
         cy="74.43"
         r="74.43"
         id="circle4029" />
      <path
         class="cls-2"
         d="M88.27,105.71c-9,.08-30.35.27-35.13-.29-3.88-.46-11-3-11.11-12.81C42,87,41.66,64,42.46,59,44.13,48.4,47,41.77,59.05,36.33c10.26-4.44,32.17-.78,34.54,16.93.45,3.37,1.25,3.74,2.49,4,19.61,4.13,24,26.26,14.6,38.32C104.73,103.26,98.31,104.76,88.27,105.71ZM84.71,59.25c.68-11.52-11-19.82-22.82-13.66-8.42,4.39-9.15,10.76-9.68,18-.67,9.2-.25,15.91-.09,25.13.07,4.13,1.27,6.64,5.7,7,1.14.1,17,0,25.22.06,10.74.06,24.06-4.89,21.93-18a12.68,12.68,0,0,0-10.8-10.22,2.12,2.12,0,0,0-2.21,1C85,83,69.66,82.31,63.41,74.46c-5.61-7.06-2.7-18.73,4.68-21.2,2.78-.94,5.11-.11,6.25,1.86,1.84,3.18.11,6.06-2.49,7.65s-2.45,3.92-1.36,5.46c2.56,3.59,7.6,2.88,10.79-.28C83.87,65.4,84.52,62.47,84.71,59.25Z"
         id="path4031" />
    </g>
  </g>
  <path
     style="fill:#ff5555"
     id="path4041"
     d="m 22.672011,61.136246 c -1.069049,-0.437174 -2.216263,-0.580002 -3.355054,-0.704093 -1.139038,-0.107334 -2.283346,-0.134921 -3.426767,-0.138605 -0.13397,0.01011 -0.269742,0.0062 -0.401911,0.03035 -0.72608,0.132504 -3.824572,1.865663 1.968159,-1.172207 0.09549,-0.05008 -0.181408,0.120221 -0.25503,0.199005 -0.219554,0.23495 -0.251022,0.385902 -0.37384,0.678862 -0.420833,1.15551 -0.551767,2.383538 -0.638336,3.601977 -0.103629,1.216412 -0.06709,2.426834 0.08332,3.636292 0.30139,1.756478 1.000596,3.412969 1.756703,5.015805 0.150785,0.320189 0.30176,0.640289 0.452355,0.960568 0.373921,0.795236 0.562947,1.23851 0.996848,2.006366 0.58703,1.038842 1.272146,1.995242 1.992721,2.943313 0.949405,1.148513 2.099521,2.114575 3.456365,2.744788 0.685811,0.318539 0.945493,0.363669 1.655601,0.565847 0.530283,0.07825 1.071184,0.199811 1.613129,0.119103 0.253693,-0.03778 0.949832,-0.366346 0.735874,-0.224892 -3.542512,2.342047 -1.764717,0.965978 -1.258131,0.336235 0.224613,-0.279219 0.408295,-0.589027 0.612442,-0.88354 1.379665,-2.352128 1.626016,-5.064922 1.826708,-7.725381 0.137243,-2.056873 -0.003,-4.130658 -0.582224,-6.117087 -0.392442,-1.345949 -0.628871,-1.722799 -1.224246,-2.998321 -1.402114,-2.675884 -3.278556,-5.129143 -5.79264,-6.855331 -0.547246,-0.375743 -1.142407,-0.676422 -1.713611,-1.014633 -2.906888,-1.593969 -6.116854,-2.49497 -9.390898,-2.933922 -0.498477,-0.06683 -1.000743,-0.101459 -1.5011142,-0.152189 -0.9139903,0.02606 -1.4512285,-0.02465 -2.3204804,0.23565 -0.2900294,0.08685 -1.0944123,0.515826 -0.8310009,0.366579 3.0337836,-1.718923 1.8864091,-1.18838 1.2672053,-0.257632 -0.1912311,0.287446 -0.3246319,0.60942 -0.4869478,0.91413 -0.7398605,2.063757 -0.9659888,4.285501 -1.0586582,6.465156 -0.030499,0.717357 -0.071396,1.437162 -0.027715,2.153837 0.04699,0.770953 0.1993624,1.531849 0.2990435,2.297774 0.9866234,4.438351 3.0973716,8.526569 5.7479357,12.198207 0.559934,0.775637 1.179088,1.506755 1.768632,2.260132 0.645777,0.679658 1.250132,1.401228 1.937331,2.038974 2.723454,2.527466 6.108137,4.255091 9.770404,4.929009 0.860278,0.158305 1.740514,0.176544 2.610772,0.264815 2.104118,-0.159705 2.711529,-0.04531 4.674487,-0.803198 0.670465,-0.258863 1.355434,-0.535864 1.920591,-0.979858 0.186805,-0.146756 -0.782052,0.25739 -0.712021,0.03039 0.193272,-0.626471 0.846489,-1.008073 1.186566,-1.56858 0.346969,-0.571867 0.576011,-1.207432 0.864016,-1.811148 0.198069,-0.645576 0.454115,-1.276142 0.594206,-1.936728 0.593175,-2.797084 0.123516,-5.799025 -0.813173,-8.465455 -0.254595,-0.724745 -0.591397,-1.417936 -0.887096,-2.126905 -1.280604,-2.728103 -2.866664,-5.325079 -4.779739,-7.658076 -0.957878,-1.168134 -1.385338,-1.553663 -2.418384,-2.595562 -0.859731,-0.734172 -2.726707,-2.447004 -3.993067,-2.351667 -0.164481,0.01238 -0.312668,0.105207 -0.469003,0.157811 0.713561,-0.381674 1.388673,-0.84614 2.140679,-1.145022 0.208095,-0.08271 -0.325756,0.308819 -0.469259,0.480723 -0.176576,0.211525 -0.337865,0.436104 -0.488621,0.666743 -0.569132,0.870704 -0.872051,1.713602 -1.188407,2.695987 -0.320496,1.21522 -0.468866,2.465955 -0.564633,3.716406 -0.09617,1.25572 -0.14787,2.004016 -0.007,3.271256 0.06767,0.608737 0.202879,1.208056 0.304318,1.812084 0.168543,0.626399 0.301677,1.263417 0.505628,1.879198 0.806908,2.436268 2.098953,4.786136 3.691993,6.796854 0.34713,0.438144 0.737566,0.840163 1.106349,1.260245 1.132093,1.156918 2.42398,2.179752 3.983292,2.685293 0.281669,0.09132 0.56836,0.183093 0.863302,0.209287 0.255823,0.02272 0.511859,-0.04295 0.767789,-0.06443 0.229991,-0.112464 0.925649,-0.437391 0.689972,-0.337391 -0.606845,0.257489 -1.155793,0.929564 -1.804095,0.810122 -0.393557,-0.07251 0.458118,-0.662167 0.619474,-1.028375 0.215837,-0.489857 0.393581,-1.000819 0.505283,-1.524334 0.411244,-1.927385 0.208299,-2.386248 0.04258,-4.435002 C 34.237238,73.592867 34.077199,72.610451 33.80975,71.654891 32.383042,66.557446 29.939372,61.76589 27.120841,57.309332 26.415598,56.194227 25.647984,55.119813 24.911555,54.025053 23.036894,51.40083 20.989204,48.90314 18.675948,46.652744 17.826694,45.826567 16.705928,44.83807 15.723724,44.129259 15.38036,43.881468 15.009561,43.674101 14.652479,43.446522 c -0.506568,-0.212913 -0.963333,-0.515779 -1.54333,-0.403373 -0.20038,0.03883 -0.727218,0.371043 -0.544097,0.280894 0.665413,-0.327576 1.262815,-0.852633 1.991045,-0.993213 0.288603,-0.05571 -0.369948,0.458995 -0.523147,0.709846 -0.184541,0.302171 -0.324601,0.629353 -0.486902,0.94403 -0.744435,1.84986 -1.01572,3.839291 -1.18759,5.813281 -0.0545,0.625942 -0.117858,1.252451 -0.126125,1.880707 -0.0092,0.695446 0.04929,1.390138 0.07394,2.085208 0.09634,0.77108 0.150023,1.548699 0.289034,2.31324 0.678199,3.729992 2.160438,7.310216 4.062746,10.575661 0.46151,0.792214 0.986638,1.545614 1.479958,2.318421 1.546021,2.148425 3.135054,4.401586 5.343171,5.932247 0.988219,0.685031 1.294413,0.743553 2.374637,1.183083 1.012291,0.322717 2.032184,0.579678 3.098966,0.391717 0.295018,-0.05198 1.096955,-0.436871 0.863433,-0.24924 -0.521456,0.41898 -1.125545,0.749815 -1.757909,0.967935 -0.26234,0.09049 0.40411,-0.380444 0.606164,-0.570666 0.152483,-0.230848 0.328981,-0.447517 0.457447,-0.692543 0.422325,-0.80551 0.684822,-1.84996 0.672666,-2.759023 -0.01591,-1.190005 -0.2528,-1.683493 -0.589808,-2.86223 -1.06162,-2.591089 -2.46652,-5.047567 -4.239118,-7.220387 -1.036897,-1.27101 -1.623059,-1.795347 -2.769081,-2.932047 -1.045907,-0.928606 -2.128546,-1.822177 -3.316717,-2.564803 -0.516005,-0.322511 -0.831418,-0.514135 -1.407005,-0.661389 -0.16828,-0.04305 -0.344191,-0.04711 -0.516286,-0.07067 -0.131905,0.03609 -0.273265,0.04738 -0.395714,0.108272 -0.124342,0.06183 -0.455518,0.314403 -0.330926,0.253075 0.753102,-0.370706 1.436344,-0.889703 2.222408,-1.184134 0.181785,-0.06809 -0.239311,0.307564 -0.334232,0.476892 -0.307451,0.548457 -0.346725,0.839375 -0.525191,1.462235 -0.284841,1.493476 -0.460242,3.026936 -0.466256,4.549612 -0.0039,0.994391 0.09978,1.895608 0.187289,2.886012 0.396323,2.494125 1.366585,4.869654 2.889186,6.891425 0.273201,0.362767 0.585808,0.694107 0.878712,1.04116 0.311508,0.291149 0.602256,0.606234 0.934524,0.873446 1.060004,0.852462 2.425289,1.522296 3.776992,1.737607 0.247573,0.03944 0.500238,0.03396 0.750357,0.05094 0.221572,-0.06508 0.857724,-0.322036 0.664716,-0.195239 -0.620304,0.407506 -1.258115,0.819717 -1.964051,1.048832 -0.23414,0.07599 0.348053,-0.354574 0.474921,-0.565527 0.154906,-0.257575 0.26844,-0.540224 0.361884,-0.825897 0.278916,-0.852685 0.328101,-1.564962 0.450213,-2.461341 0.114462,-2.681803 -0.479352,-5.345077 -1.667372,-7.751677 -0.199226,-0.403575 -0.445019,-0.782441 -0.667528,-1.173661 -0.76469,-1.131118 -1.845449,-2.468998 -3.201674,-2.927226 -0.155203,-0.05244 -0.321787,-0.06168 -0.482681,-0.09252 -0.145574,0.02691 -0.298267,0.02832 -0.436722,0.08072 -0.139647,0.05285 -0.517369,0.297883 -0.384362,0.230033 0.739913,-0.377442 1.423485,-0.880132 2.205827,-1.159195 0.188418,-0.06721 -0.244063,0.318878 -0.340848,0.493953 -0.332969,0.602305 -0.412832,0.959966 -0.630699,1.623901 -0.426421,1.500394 -0.784213,3.047916 -0.888734,4.609768 -0.06642,0.99249 0.0033,1.534439 0.07012,2.520878 0.32963,1.935253 1.001116,3.94728 2.526456,5.284416 0.276495,0.24238 0.601036,0.42373 0.901554,0.635594 1.33625,0.688307 2.835078,1.167595 4.357759,0.978251 1.092977,-0.135911 1.256512,-0.308636 2.250432,-0.772377 -0.472612,0.219698 -0.963668,0.914754 -1.417836,0.659096 -0.380956,-0.214447 0.637165,-0.603071 0.908645,-0.945728 0.28239,-0.356427 0.532021,-0.740956 0.745702,-1.142359 0.809599,-1.520845 1.053677,-3.174228 1.332343,-4.848581 0.420586,-3.182429 0.417408,-6.433584 -0.493483,-9.535604 -0.139617,-0.475466 -0.332598,-0.933607 -0.498897,-1.40041 -0.516004,-1.114592 -1.392175,-2.841913 -2.606475,-3.383443 -0.132375,-0.05903 -0.281471,-0.06932 -0.422207,-0.103983 -1.420973,0.597099 1.208766,-0.771353 1.868969,-1.040829 0.165803,-0.06768 -0.245338,0.262826 -0.346371,0.410688 -0.430293,0.629737 -0.60225,1.342101 -0.78815,2.068792 -0.228309,1.15845 -0.306266,2.339205 -0.365251,3.51613 -0.05047,1.006989 -0.100883,1.82537 0.0081,2.833208 0.05439,0.502799 0.168568,0.99732 0.252852,1.49598 0.589883,2.141394 1.45983,4.25887 2.792415,6.05431 0.157121,0.211695 0.338583,0.404188 0.507875,0.606282 0.499286,0.428396 0.250384,0.272493 0.719872,0.50804 0,0 -2.528198,1.629614 -2.528198,1.629614 v 0 c -0.458455,-0.342144 -0.219075,-0.135556 -0.695998,-0.644532 -1.500518,-2.05183 -2.561947,-4.409516 -3.234503,-6.856381 -0.09533,-0.506067 -0.222648,-1.007144 -0.28598,-1.518202 -0.118363,-0.955138 -0.08185,-1.88679 -0.05036,-2.844164 0.03868,-1.176304 0.106267,-2.35343 0.260001,-3.520966 0.130957,-0.611517 0.183997,-0.983043 0.405674,-1.5614 0.597466,-1.558794 2.210207,-2.862812 3.949942,-2.814436 0.152,0.06169 0.313981,0.102968 0.456,0.185065 1.254311,0.725078 1.972777,2.399913 2.525418,3.64345 0.156618,0.482302 0.336805,0.957577 0.469854,1.446905 0.855765,3.147334 0.887111,6.421388 0.508488,9.64355 -0.302202,2.197276 -0.548193,4.239697 -1.89842,6.088308 -1.202914,1.646922 -2.214207,1.82627 -4.294782,3.125038 -1.02874,0.424009 -1.21919,0.596264 -2.334291,0.690467 -1.56707,0.132385 -3.106639,-0.384382 -4.461832,-1.123726 -0.310888,-0.228803 -0.647188,-0.426588 -0.932662,-0.686408 -1.543433,-1.404734 -2.234438,-3.471412 -2.595107,-5.462715 -0.06969,-0.982689 -0.142213,-1.579292 -0.08971,-2.568823 0.08286,-1.561788 0.416893,-3.114223 0.800313,-4.624728 0.18861,-0.666343 0.267038,-1.037058 0.538748,-1.660483 0.08276,-0.189883 0.121798,-0.426474 0.287335,-0.550981 0.912622,-0.686416 1.909168,-1.25487 2.890363,-1.839081 0.134489,-0.08008 0.291124,-0.123734 0.445858,-0.147328 0.160239,-0.02443 0.324163,0.0035 0.486245,0.0052 0.167783,0.05287 0.342244,0.08796 0.503349,0.158614 1.392278,0.610578 2.356048,1.928271 3.154591,3.156269 0.217893,0.404972 0.456932,0.79926 0.653679,1.214917 1.16259,2.456138 1.772789,5.148782 1.758456,7.865021 -0.10177,1.121652 -0.14123,2.323087 -0.629731,3.36619 -0.726767,1.551875 -2.593669,2.387344 -4.243758,2.567413 -0.251869,-0.03443 -0.507264,-0.04898 -0.755607,-0.103293 -1.365252,-0.298562 -2.71699,-1.009721 -3.782315,-1.905087 -0.333519,-0.28031 -0.624952,-0.607182 -0.937427,-0.910774 -0.770556,-0.953509 -1.064277,-1.254949 -1.715673,-2.325635 -1.071926,-1.761902 -1.754248,-3.738664 -2.110648,-5.763861 -0.107627,-1.042307 -0.216063,-1.859642 -0.231807,-2.905033 -0.02292,-1.521912 0.10743,-3.057942 0.349268,-4.558794 0.08101,-0.366339 0.377105,-1.786549 0.71885,-2.044117 0.907257,-0.683784 1.896912,-1.251419 2.863995,-1.847594 0.122697,-0.07564 0.258892,-0.134637 0.399905,-0.164491 0.142612,-0.03019 0.291423,-0.0085 0.437135,-0.01272 0.172698,0.04511 0.350453,0.07404 0.518093,0.13533 0.574362,0.209985 0.85697,0.404559 1.369426,0.767213 1.140076,0.806806 2.180381,1.74137 3.195989,2.6972 1.095265,1.129519 1.742454,1.74723 2.742575,2.990749 1.772678,2.204093 3.220045,4.669595 4.383307,7.242925 0.37879,1.124056 0.678959,1.736759 0.75119,2.900397 0.05756,0.927371 -0.193169,2.019218 -0.576543,2.862428 -0.119613,0.263081 -0.288292,0.500964 -0.432438,0.751446 -0.193056,0.215184 -0.336415,0.488563 -0.57917,0.645551 -1.658838,1.072766 -3.133355,2.218823 -5.121346,2.037618 C 24.85925,78.12218 24.265938,77.886336 23.513633,77.64786 22.419576,77.158793 22.139137,77.103693 21.151018,76.362083 18.992239,74.741859 17.481784,72.422244 15.973862,70.231249 15.490285,69.44618 14.981874,68.675877 14.52313,67.876044 12.634932,64.583921 11.076802,61.016314 10.300716,57.285965 10.142126,56.523683 10.070709,55.745836 9.9557058,54.975771 9.9137343,54.278797 9.8346388,53.58307 9.8297913,52.88485 c -0.00435,-0.626607 0.057112,-1.252028 0.098365,-1.877291 0.1303857,-1.976267 0.3514387,-3.960901 1.0127587,-5.840186 0.08595,-0.189678 0.654545,-1.54347 0.897034,-1.729784 0.955227,-0.73394 2.005771,-1.338341 3.052749,-1.93413 0.184586,-0.105039 0.405684,-0.153114 0.618057,-0.154763 0.598804,-0.0046 1.01284,0.313147 1.519469,0.581864 0.336889,0.250804 0.687205,0.484513 1.010665,0.752412 0.936288,0.77546 1.963109,1.796026 2.780003,2.66631 2.206999,2.351242 4.19166,4.893619 6.035213,7.537997 0.724594,1.105867 1.473906,2.195928 2.173781,3.317602 2.76821,4.43655 5.349824,9.28443 6.944894,14.282855 0.302227,0.947079 0.500482,1.924244 0.750723,2.886366 0.104379,0.820027 0.281903,1.634027 0.313137,2.460079 0.04396,1.162661 -0.15857,2.428689 -0.550492,3.529058 -0.135494,0.380418 -0.225824,0.8249 -0.531686,1.088577 -2.098268,1.808876 -2.231592,1.781784 -3.913458,2.347906 -0.26581,-0.0062 -0.535068,0.02466 -0.79743,-0.01846 -0.297404,-0.04888 -0.585145,-0.149556 -0.867433,-0.255157 -1.554483,-0.581515 -2.820742,-1.662033 -3.929887,-2.870407 -0.367582,-0.431492 -0.758898,-0.843844 -1.102747,-1.294477 -1.522031,-1.994703 -2.889844,-4.524646 -3.70643,-6.894319 -0.213428,-0.619353 -0.358261,-1.260256 -0.537391,-1.890383 -0.115677,-0.608505 -0.265833,-1.211458 -0.34703,-1.825515 -0.171786,-1.299138 -0.125767,-1.992272 -0.06185,-3.279821 0.06239,-1.2568 0.16852,-2.511617 0.46855,-3.737726 0.09916,-0.340376 0.181996,-0.68594 0.29749,-1.021127 0.299393,-0.868903 0.727979,-1.669389 1.25651,-2.419082 0.129953,-0.184333 0.225019,-0.410955 0.412502,-0.536322 0.961062,-0.642649 1.998618,-1.162789 2.997926,-1.744184 0.175874,-0.01749 0.351494,-0.06719 0.527621,-0.05247 1.396958,0.116699 2.935788,1.763807 3.898434,2.621111 1.016501,1.092528 1.399939,1.463571 2.353873,2.671255 1.882998,2.383884 3.455168,5.003014 4.77341,7.736771 0.305842,0.715261 0.655419,1.413364 0.917525,2.145784 0.949465,2.653155 1.469467,5.785961 0.918222,8.580623 -0.132357,0.671019 -0.383236,1.313114 -0.574854,1.96967 -0.478766,1.063989 -1.06201,2.686388 -2.003028,3.487554 -1.163877,0.990903 -3.919329,2.880525 -5.740842,3.528607 -1.961047,0.697727 -2.587517,0.574134 -4.674114,0.685205 C 25.650871,88.28211 24.771115,88.243726 23.912549,88.072624 20.18837,87.330439 16.842591,85.619498 14.076417,83.022689 13.387964,82.376388 12.783581,81.646003 12.137162,80.957661 11.545306,80.19851 10.925831,79.460105 10.361593,78.680209 7.6850982,74.980726 5.5307353,70.897462 4.4547925,66.440109 4.3384406,65.66879 4.1687708,64.903647 4.1057368,64.126152 4.0477846,63.411339 4.076392,62.691687 4.0927685,61.974715 c 0.049662,-2.174241 0.2217978,-4.385086 0.8348497,-6.479326 0.1712567,-0.374346 0.5755174,-1.415518 0.9657377,-1.69977 1.556991,-1.134174 3.0940276,-2.262765 5.0361231,-2.364711 0.412544,-0.02166 0.826096,0.01447 1.239144,0.0217 3.77313,0.508555 7.508739,1.370642 10.864966,3.241097 0.583839,0.344564 1.191593,0.651491 1.751517,1.033691 2.557689,1.745856 4.437604,4.243928 5.900876,6.93567 0.615035,1.289691 0.859724,1.674565 1.271146,3.037343 0.605997,2.007281 0.737819,4.103425 0.628893,6.187339 -0.172985,2.678281 -0.376254,5.408372 -1.681148,7.815694 -0.167221,0.269882 -0.801539,1.379067 -1.126421,1.602341 -0.945631,0.649882 -2.495424,1.914627 -3.945123,2.026804 -0.570838,0.04417 -1.096315,-0.08946 -1.651388,-0.189822 -0.720333,-0.234155 -0.966305,-0.284885 -1.659271,-0.635503 -1.360661,-0.688451 -2.514651,-1.702521 -3.490203,-2.865478 -0.719482,-0.964092 -1.423947,-1.93251 -2.023532,-2.978008 -0.39923,-0.696137 -0.670814,-1.287554 -1.016488,-2.009257 -0.152661,-0.318728 -0.304143,-0.638019 -0.456215,-0.957028 -0.785394,-1.616358 -1.516677,-3.288785 -1.863526,-5.060879 -0.176934,-1.223633 -0.246526,-2.44799 -0.128317,-3.682615 0.09941,-1.231603 0.213031,-2.469449 0.567187,-3.659339 0.06694,-0.207172 0.18313,-0.611463 0.301241,-0.800824 0.06104,-0.09786 0.134943,-0.195558 0.233668,-0.25519 1.712762,-1.034532 2.150779,-1.686283 3.671122,-1.703299 1.130995,0.02971 2.261325,0.08704 3.387188,0.202563 0.720108,0.08384 1.439054,0.168805 2.148718,0.321542 0.333638,0.07181 0.658456,0.182225 0.993303,0.248164 0.09714,0.01913 0.196695,0.02279 0.295042,0.03418 0,0 -2.469847,1.794449 -2.469847,1.794449 z"
     inkscape:connector-curvature="0" />
  <use
     id="use4043"
     inkscape:spray-origin="#path4041"
     xlink:href="#path4041"
     x="0"
     y="0"
     width="100%"
     height="100%"
     transform="translate(-0.77497722,0.68376134)" />
  <use
     id="use4045"
     inkscape:spray-origin="#path4041"
     xlink:href="#path4041"
     x="0"
     y="0"
     width="100%"
     height="100%"
     transform="translate(6.2297628,4.7876917)" />
  <use
     id="use4047"
     inkscape:spray-origin="#path4041"
     xlink:href="#path4041"
     x="0"
     y="0"
     width="100%"
     height="100%"
     transform="translate(4.8446089,4.2535061)" />
  <use
     id="use4049"
     inkscape:spray-origin="#path4041"
     xlink:href="#path4041"
     x="0"
     y="0"
     width="100%"
     height="100%"
     transform="translate(9.4456394,1.2697858)" />
  <use
     id="use4051"
     inkscape:spray-origin="#path4041"
     xlink:href="#path4041"
     x="0"
     y="0"
     width="100%"
     height="100%"
     transform="translate(-0.48298182,-1.7871906)" />
  <use
     id="use4053"
     inkscape:spray-origin="#path4041"
     xlink:href="#path4041"
     x="0"
     y="0"
     width="100%"
     height="100%"
     transform="translate(2.3614214,2.5465492)" />
  <use
     id="use4055"
     inkscape:spray-origin="#path4041"
     xlink:href="#path4041"
     x="0"
     y="0"
     width="100%"
     height="100%"
     transform="translate(5.019255,6.3546439)" />
  <use
     id="use4057"
     inkscape:spray-origin="#path4041"
     xlink:href="#path4041"
     x="0"
     y="0"
     width="100%"
     height="100%"
     transform="translate(-3.0193346,1.7431948)" />
  <use
     id="use4059"
     inkscape:spray-origin="#path4041"
     xlink:href="#path4041"
     x="0"
     y="0"
     width="100%"
     height="100%"
     transform="translate(4.1261178,-0.4941219)" />
  <use
     id="use4061"
     inkscape:spray-origin="#path4041"
     xlink:href="#path4041"
     x="0"
     y="0"
     width="100%"
     height="100%"
     transform="translate(1.2611012,-1.8925651)" />
  <use
     id="use4063"
     inkscape:spray-origin="#path4041"
     xlink:href="#path4041"
     x="0"
     y="0"
     width="100%"
     height="100%"
     transform="translate(-1.125928,-2.2125856)" />
  <use
     id="use4065"
     inkscape:spray-origin="#path4041"
     xlink:href="#path4041"
     x="0"
     y="0"
     width="100%"
     height="100%"
     transform="translate(-2.9773886,6.1618392)" />
  <use
     id="use4067"
     inkscape:spray-origin="#path4041"
     xlink:href="#path4041"
     x="0"
     y="0"
     width="100%"
     height="100%"
     transform="translate(-1.3695849,4.1232917)" />
  <use
     id="use4069"
     inkscape:spray-origin="#path4041"
     xlink:href="#path4041"
     x="0"
     y="0"
     width="100%"
     height="100%"
     transform="translate(-6.4795671,1.1487716)" />
  <use
     id="use4071"
     inkscape:spray-origin="#path4041"
     xlink:href="#path4041"
     x="0"
     y="0"
     width="100%"
     height="100%"
     transform="translate(4.4002157,7.6943358)" />
  <use
     id="use4073"
     inkscape:spray-origin="#path4041"
     xlink:href="#path4041"
     x="0"
     y="0"
     width="100%"
     height="100%"
     transform="translate(0.83647162,5.5851561)" />
  <use
     id="use4075"
     inkscape:spray-origin="#path4041"
     xlink:href="#path4041"
     x="0"
     y="0"
     width="100%"
     height="100%"
     transform="translate(6.9525868,10.210869)" />
  <use
     id="use4077"
     inkscape:spray-origin="#path4041"
     xlink:href="#path4041"
     x="0"
     y="0"
     width="100%"
     height="100%"
     transform="translate(8.565875,10.520872)" />
  <use
     id="use4079"
     inkscape:spray-origin="#path4041"
     xlink:href="#path4041"
     x="0"
     y="0"
     width="100%"
     height="100%"
     transform="translate(16.761016,-17.40909)" />
  <use
     id="use4081"
     inkscape:spray-origin="#path4041"
     xlink:href="#path4041"
     x="0"
     y="0"
     width="100%"
     height="100%"
     transform="translate(15.963309,-11.73937)" />
  <use
     id="use4083"
     inkscape:spray-origin="#path4041"
     xlink:href="#path4041"
     x="0"
     y="0"
     width="100%"
     height="100%"
     transform="translate(24.508471,-5.8636677)" />
  <use
     id="use4085"
     inkscape:spray-origin="#path4041"
     xlink:href="#path4041"
     x="0"
     y="0"
     width="100%"
     height="100%"
     transform="translate(19.110992,4.1649877)" />
  <use
     id="use4087"
     inkscape:spray-origin="#path4041"
     xlink:href="#path4041"
     x="0"
     y="0"
     width="100%"
     height="100%"
     transform="translate(30.190312,-1.0792234)" />
  <use
     id="use4089"
     inkscape:spray-origin="#path4041"
     xlink:href="#path4041"
     x="0"
     y="0"
     width="100%"
     height="100%"
     transform="translate(28.074018,2.5476803)" />
  <use
     id="use4091"
     inkscape:spray-origin="#path4041"
     xlink:href="#path4041"
     x="0"
     y="0"
     width="100%"
     height="100%"
     transform="translate(30.306312,-3.6255659)" />
  <use
     id="use4093"
     inkscape:spray-origin="#path4041"
     xlink:href="#path4041"
     x="0"
     y="0"
     width="100%"
     height="100%"
     transform="translate(30.261383,-1.0055127)" />
  <use
     id="use4095"
     inkscape:spray-origin="#path4041"
     xlink:href="#path4041"
     x="0"
     y="0"
     width="100%"
     height="100%"
     transform="translate(31.682249,-12.607354)" />
  <use
     id="use4097"
     inkscape:spray-origin="#path4041"
     xlink:href="#path4041"
     x="0"
     y="0"
     width="100%"
     height="100%"
     transform="translate(31.975371,-9.3654151)" />
  <use
     id="use4099"
     inkscape:spray-origin="#path4041"
     xlink:href="#path4041"
     x="0"
     y="0"
     width="100%"
     height="100%"
     transform="translate(35.616703,-1.4675582)" />
  <use
     id="use4101"
     inkscape:spray-origin="#path4041"
     xlink:href="#path4041"
     x="0"
     y="0"
     width="100%"
     height="100%"
     transform="translate(32.124679,-5.1643002)" />
  <use
     id="use4103"
     inkscape:spray-origin="#path4041"
     xlink:href="#path4041"
     x="0"
     y="0"
     width="100%"
     height="100%"
     transform="translate(25.413899,-3.8839292)" />
  <use
     id="use4105"
     inkscape:spray-origin="#path4041"
     xlink:href="#path4041"
     x="0"
     y="0"
     width="100%"
     height="100%"
     transform="translate(36.016858,1.1062928)" />
  <use
     id="use4107"
     inkscape:spray-origin="#path4041"
     xlink:href="#path4041"
     x="0"
     y="0"
     width="100%"
     height="100%"
     transform="translate(58.417189,-6.8252356)" />
  <use
     id="use4109"
     inkscape:spray-origin="#path4041"
     xlink:href="#path4041"
     x="0"
     y="0"
     width="100%"
     height="100%"
     transform="translate(59.991482,-11.391188)" />
  <use
     id="use4111"
     inkscape:spray-origin="#path4041"
     xlink:href="#path4041"
     x="0"
     y="0"
     width="100%"
     height="100%"
     transform="translate(61.800811,-4.4423019)" />
  <use
     id="use4113"
     inkscape:spray-origin="#path4041"
     xlink:href="#path4041"
     x="0"
     y="0"
     width="100%"
     height="100%"
     transform="translate(55.818517,-2.1186311)" />
  <use
     id="use4115"
     inkscape:spray-origin="#path4041"
     xlink:href="#path4041"
     x="0"
     y="0"
     width="100%"
     height="100%"
     transform="translate(57.613092,-3.9278227)" />
  <use
     id="use4117"
     inkscape:spray-origin="#path4041"
     xlink:href="#path4041"
     x="0"
     y="0"
     width="100%"
     height="100%"
     transform="translate(76.292997,9.4267428)" />
  <use
     id="use4119"
     inkscape:spray-origin="#path4041"
     xlink:href="#path4041"
     x="0"
     y="0"
     width="100%"
     height="100%"
     transform="translate(83.016076,2.210681)" />
  <use
     id="use4121"
     inkscape:spray-origin="#path4041"
     xlink:href="#path4041"
     x="0"
     y="0"
     width="100%"
     height="100%"
     transform="translate(77.14771,4.6153154)" />
  <use
     id="use4123"
     inkscape:spray-origin="#path4041"
     xlink:href="#path4041"
     x="0"
     y="0"
     width="100%"
     height="100%"
     transform="translate(68.2823,-2.3343667)" />
  <use
     id="use4125"
     inkscape:spray-origin="#path4041"
     xlink:href="#path4041"
     x="0"
     y="0"
     width="100%"
     height="100%"
     transform="translate(67.533456,-6.1168757)" />
  <use
     id="use4127"
     inkscape:spray-origin="#path4041"
     xlink:href="#path4041"
     x="0"
     y="0"
     width="100%"
     height="100%"
     transform="translate(47.828298,-20.832042)" />
  <use
     id="use4129"
     inkscape:spray-origin="#path4041"
     xlink:href="#path4041"
     x="0"
     y="0"
     width="100%"
     height="100%"
     transform="translate(42.169718,-21.705491)" />
  <use
     id="use4131"
     inkscape:spray-origin="#path4041"
     xlink:href="#path4041"
     x="0"
     y="0"
     width="100%"
     height="100%"
     transform="translate(47.427352,-24.873322)" />
  <use
     id="use4133"
     inkscape:spray-origin="#path4041"
     xlink:href="#path4041"
     x="0"
     y="0"
     width="100%"
     height="100%"
     transform="translate(81.146314,-16.638464)" />
  <use
     id="use4135"
     inkscape:spray-origin="#path4041"
     xlink:href="#path4041"
     x="0"
     y="0"
     width="100%"
     height="100%"
     transform="translate(83.05265,-14.801694)" />
  <use
     id="use4137"
     inkscape:spray-origin="#path4041"
     xlink:href="#path4041"
     x="0"
     y="0"
     width="100%"
     height="100%"
     transform="translate(17.479765,29.944064)" />
  <use
     id="use4139"
     inkscape:spray-origin="#path4041"
     xlink:href="#path4041"
     x="0"
     y="0"
     width="100%"
     height="100%"
     transform="translate(20.214301,29.449885)" />
  <use
     id="use4141"
     inkscape:spray-origin="#path4041"
     xlink:href="#path4041"
     x="0"
     y="0"
     width="100%"
     height="100%"
     transform="translate(17.17317,35.206396)" />
  <use
     id="use4143"
     inkscape:spray-origin="#path4041"
     xlink:href="#path4041"
     x="0"
     y="0"
     width="100%"
     height="100%"
     transform="translate(19.933849,33.414506)" />
  <use
     id="use4145"
     inkscape:spray-origin="#path4041"
     xlink:href="#path4041"
     x="0"
     y="0"
     width="100%"
     height="100%"
     transform="translate(34.585372,25.858467)" />
  <use
     id="use4147"
     inkscape:spray-origin="#path4041"
     xlink:href="#path4041"
     x="0"
     y="0"
     width="100%"
     height="100%"
     transform="translate(59.85849,31.337433)" />
  <use
     id="use4149"
     inkscape:spray-origin="#path4041"
     xlink:href="#path4041"
     x="0"
     y="0"
     width="100%"
     height="100%"
     transform="translate(75.087755,32.285606)" />
  <use
     id="use4151"
     inkscape:spray-origin="#path4041"
     xlink:href="#path4041"
     x="0"
     y="0"
     width="100%"
     height="100%"
     transform="translate(69.506689,31.721996)" />
  <use
     id="use4153"
     inkscape:spray-origin="#path4041"
     xlink:href="#path4041"
     x="0"
     y="0"
     width="100%"
     height="100%"
     transform="translate(86.267644,24.16112)" />
  <use
     id="use4155"
     inkscape:spray-origin="#path4041"
     xlink:href="#path4041"
     x="0"
     y="0"
     width="100%"
     height="100%"
     transform="translate(77.82605,29.885381)" />
  <use
     id="use4157"
     inkscape:spray-origin="#path4041"
     xlink:href="#path4041"
     x="0"
     y="0"
     width="100%"
     height="100%"
     transform="translate(53.120065,38.918928)" />
  <use
     id="use4159"
     inkscape:spray-origin="#path4041"
     xlink:href="#path4041"
     x="0"
     y="0"
     width="100%"
     height="100%"
     transform="translate(50.785838,31.461983)" />
  <use
     id="use4161"
     inkscape:spray-origin="#path4041"
     xlink:href="#path4041"
     x="0"
     y="0"
     width="100%"
     height="100%"
     transform="translate(55.185399,35.106545)" />
  <use
     id="use4163"
     inkscape:spray-origin="#path4041"
     xlink:href="#path4041"
     x="0"
     y="0"
     width="100%"
     height="100%"
     transform="translate(33.835888,32.046133)" />
  <use
     id="use4165"
     inkscape:spray-origin="#path4041"
     xlink:href="#path4041"
     x="0"
     y="0"
     width="100%"
     height="100%"
     transform="translate(102.33907,-13.097073)" />
  <use
     id="use4167"
     inkscape:spray-origin="#path4041"
     xlink:href="#path4041"
     x="0"
     y="0"
     width="100%"
     height="100%"
     transform="translate(107.73424,7.5376939)" />
  <use
     id="use4169"
     inkscape:spray-origin="#path4041"
     xlink:href="#path4041"
     x="0"
     y="0"
     width="100%"
     height="100%"
     transform="translate(105.30558,12.48114)" />
</svg>
